<svg width="307" height="213" viewBox="0 0 307 213" fill="none" xmlns="http://www.w3.org/2000/svg">
<path d="M102.578 0.00197574C43.7521 0.722164 0 50.7753 0 106.23C0 164.565 44.4874 212.098 99.6371 212.098C143.022 212.098 173.17 187.971 188.244 154.843C188.244 154.843 170.964 184.73 135.668 184.73C94.4898 184.73 61.0323 138.998 61.0323 82.8237C61.0323 54.3762 67.6503 25.5687 87.5042 8.64425C97.0635 -0.358113 102.578 0.00197574 102.578 0.00197574Z" fill="white" fill-opacity="0.25"/>
<path d="M167.655 23.0478C138.61 0.00171414 106.623 0.00170898 106.623 0.00170898C106.623 0.00170898 135.668 1.80218 139.713 18.0064C143.022 30.9698 121.329 36.3712 121.329 59.0572C121.329 77.0619 136.036 91.4657 154.419 91.4657C172.802 91.4657 187.509 77.0619 187.509 59.0572C187.877 44.6534 181.626 34.2107 167.655 23.0478Z" fill="white" fill-opacity="0.25"/>
<path d="M307 158.805C307 151.603 305.529 144.761 302.22 138.639C299.279 132.518 294.867 126.756 289.72 122.075C284.572 117.394 278.322 113.433 270.969 110.552C263.983 107.671 256.262 105.871 248.174 105.511C254.056 104.07 259.204 101.55 263.983 98.3087C268.763 95.0678 273.175 91.1068 276.852 86.4256C280.528 81.7443 283.469 76.703 285.308 71.3016C287.514 65.9002 288.249 59.7786 288.249 54.0171C288.249 46.4551 286.778 39.6133 284.205 33.1316C281.263 26.6499 277.587 20.8884 272.44 16.2072C267.292 11.526 261.777 7.56493 255.159 4.68417C248.541 1.80342 241.556 0.363037 233.835 0.363037H181.259C194.862 1.80341 201.848 6.84473 206.995 10.8058C225.378 25.2095 233.467 40.3335 233.467 59.4185C233.467 79.9439 219.128 97.9486 200.377 104.79V105.15C227.217 105.871 248.541 127.116 248.541 153.043C248.541 187.972 214.716 212.098 191.921 212.098V212.459H249.644C288.249 212.098 307 188.332 307 158.805Z" fill="white" fill-opacity="0.25"/>
</svg>
