<svg width="281" height="76" viewBox="0 0 281 76" fill="none" xmlns="http://www.w3.org/2000/svg">
<path d="M29.7775 14.7603C16.9354 14.9174 7.38417 25.8306 7.38417 37.9215C7.38417 50.6405 17.096 61.0041 29.1354 61.0041C38.6064 61.0041 45.1879 55.7438 48.4787 48.5207C48.4787 48.5207 44.7064 55.0372 37.0011 55.0372C28.0117 55.0372 20.7078 45.0661 20.7078 32.8182C20.7078 26.6157 22.1525 20.3347 26.4867 16.6446C28.5735 14.6818 29.7775 14.7603 29.7775 14.7603Z" fill="white"/>
<path d="M43.984 19.7851C37.6432 14.7603 30.6604 14.7603 30.6604 14.7603C30.6604 14.7603 37.0011 15.1529 37.884 18.6859C38.6064 21.5124 33.8709 22.6901 33.8709 27.6364C33.8709 31.562 37.0814 34.7025 41.0945 34.7025C45.1077 34.7025 48.3182 31.562 48.3182 27.6364C48.3984 24.4959 47.034 22.219 43.984 19.7851Z" fill="white"/>
<path d="M74.4036 49.3843C74.4036 47.814 74.0825 46.3223 73.3602 44.9876C72.7181 43.6529 71.7549 42.3967 70.6312 41.376C69.5076 40.3554 68.1431 39.4917 66.5378 38.8636C65.0128 38.2355 63.3273 37.843 61.5615 37.7645C62.8457 37.4504 63.9694 36.9008 65.0128 36.1942C66.0563 35.4876 67.0194 34.624 67.822 33.6033C68.6247 32.5826 69.2668 31.4835 69.6681 30.3058C70.1497 29.1281 70.3102 27.7934 70.3102 26.5372C70.3102 24.8884 69.9891 23.3967 69.4273 21.9835C68.7852 20.5702 67.9826 19.314 66.8589 18.2934C65.7352 17.2727 64.5313 16.4091 63.0865 15.781C61.6418 15.1529 60.1168 14.8388 58.4313 14.8388H46.9537C49.9234 15.1529 51.4484 16.2521 52.5721 17.1157C56.5853 20.2562 58.351 23.5537 58.351 27.7149C58.351 32.1901 55.2208 36.1157 51.1274 37.6074V37.6859C56.9866 37.843 61.6418 42.4752 61.6418 48.1281C61.6418 55.7438 54.2576 61.0041 49.2813 61.0041V61.0826H61.8826C70.3102 61.0041 74.4036 55.8223 74.4036 49.3843Z" fill="white"/>
<path d="M104.342 36.4298C104.181 36.6653 103.86 37.0578 103.459 37.6074C103.057 38.157 102.415 38.7066 101.693 39.2562C100.89 39.8058 100.007 40.2769 98.8837 40.6694C97.7601 41.062 96.3956 41.2975 94.8706 41.2975C93.0246 41.2975 91.2588 40.9835 89.7338 40.2769C88.2088 39.5702 86.8443 38.7066 85.7207 37.4504C84.597 36.2727 83.7141 34.8595 83.1522 33.2107C82.5904 31.562 82.2693 29.8347 82.2693 27.9504C82.2693 26.0661 82.5904 24.3388 83.1522 22.7686C83.7141 21.1198 84.597 19.7851 85.7207 18.5289C86.8443 17.3512 88.1285 16.4091 89.7338 15.7025C91.2588 14.9959 93.0246 14.6818 94.8706 14.6818C96.3956 14.6818 97.7601 14.9174 98.8837 15.3099C100.007 15.7025 100.971 16.1736 101.693 16.7231C102.496 17.2727 103.057 17.8223 103.459 18.3719C103.86 18.9215 104.181 19.314 104.342 19.5496L102.897 20.4917C102.736 20.2562 102.496 19.9421 102.094 19.5496C101.773 19.0785 101.211 18.6859 100.569 18.2149C99.9272 17.7438 99.1245 17.3512 98.1614 16.9587C97.1982 16.5661 96.0745 16.4091 94.7101 16.4091C93.0246 16.4091 91.5798 16.7231 90.2154 17.2727C88.9312 17.9008 87.8075 18.6859 86.8443 19.7066C85.9614 20.7273 85.2391 21.9835 84.7575 23.3967C84.2759 24.8099 84.0351 26.3017 84.0351 27.9504C84.0351 29.5992 84.2759 31.0909 84.7575 32.5041C85.2391 33.9174 85.9614 35.1736 86.8443 36.1942C87.7272 37.2149 88.8509 38.0785 90.2154 38.7066C91.5798 39.3347 93.0246 39.5702 94.7903 39.5702C95.9943 39.5702 97.118 39.4132 98.0009 39.0207C98.964 38.6281 99.6864 38.2355 100.328 37.7645C100.971 37.2934 101.452 36.8223 101.853 36.4298C102.255 35.9587 102.496 35.6446 102.656 35.4876L104.342 36.4298Z" fill="white"/>
<path d="M107.873 14.7603H109.639V26.3802C109.88 25.9876 110.121 25.595 110.522 25.0454C110.923 24.5744 111.405 24.1033 111.967 23.7107C112.528 23.3182 113.251 23.0041 113.973 22.6901C114.776 22.4545 115.659 22.2975 116.622 22.2975C117.906 22.2975 119.03 22.4545 119.913 22.8471C120.795 23.2397 121.518 23.7107 122.08 24.4174C122.642 25.124 123.043 25.9091 123.284 26.9297C123.524 27.8719 123.605 28.9711 123.605 30.1488V40.6694H121.999V30.6983C121.999 29.3636 121.919 28.2645 121.678 27.4008C121.438 26.5372 121.117 25.8306 120.635 25.281C120.153 24.7314 119.592 24.4173 118.949 24.1818C118.307 23.9463 117.505 23.8678 116.622 23.8678C115.418 23.8678 114.455 24.1033 113.572 24.5744C112.689 25.0454 112.047 25.6735 111.485 26.3802C110.923 27.0868 110.522 27.8719 110.201 28.814C109.96 29.6777 109.799 30.5413 109.799 31.405V40.5909H108.034V14.7603H107.873Z" fill="white"/>
<path d="M127.859 22.7686H129.624V32.6612C129.624 33.9959 129.705 35.095 129.945 35.9587C130.186 36.8223 130.507 37.5289 130.989 38.0785C131.47 38.6281 132.032 38.9421 132.674 39.1777C133.316 39.4132 134.119 39.4917 135.002 39.4917C136.126 39.4917 137.169 39.2562 137.972 38.7851C138.855 38.314 139.497 37.6859 140.059 36.9793C140.62 36.2727 141.022 35.4876 141.262 34.5455C141.503 33.6818 141.664 32.8182 141.664 31.9545V22.7686H143.43V36.9008C143.43 37.4504 143.43 37.843 143.43 38.157C143.43 38.4711 143.43 38.7851 143.43 39.0992C143.43 39.3347 143.43 39.6488 143.43 39.8843C143.43 40.1198 143.43 40.4339 143.51 40.6694H141.824C141.824 40.3554 141.744 40.1198 141.744 39.8843C141.744 39.6488 141.744 39.4132 141.664 39.0992C141.664 38.8636 141.664 38.5496 141.664 38.157C141.664 37.843 141.664 37.3719 141.664 36.9008C141.423 37.2934 141.182 37.7645 140.781 38.2355C140.38 38.7066 139.978 39.1777 139.416 39.6488C138.855 40.0413 138.213 40.4339 137.41 40.7479C136.607 41.062 135.724 41.1405 134.681 41.1405C133.397 41.1405 132.273 40.9835 131.39 40.5909C130.507 40.1983 129.785 39.7273 129.223 39.0207C128.661 38.314 128.26 37.5289 128.099 36.5868C127.859 35.6446 127.778 34.5455 127.778 33.2893V22.7686H127.859Z" fill="white"/>
<path d="M148.005 26.5372C148.005 26.0661 148.005 25.595 148.005 25.281C148.005 24.9669 148.005 24.6529 148.005 24.3388C148.005 24.1033 148.005 23.7893 148.005 23.5537C148.005 23.3182 148.005 23.0041 147.924 22.7686H149.61C149.61 23.0826 149.69 23.3182 149.69 23.5537C149.69 23.7893 149.69 24.1033 149.69 24.4174C149.69 24.7314 149.69 25.0455 149.69 25.438C149.69 25.8306 149.69 26.2231 149.69 26.6942C149.931 26.3016 150.172 25.9091 150.573 25.3595C150.894 24.8884 151.376 24.4174 151.937 24.0248C152.499 23.6322 153.141 23.2397 153.864 23.0041C154.586 22.6901 155.469 22.6116 156.432 22.6116C156.994 22.6116 157.556 22.6901 157.957 22.8471L157.476 24.4959C157.315 24.4174 157.074 24.3388 156.833 24.3388C156.593 24.3388 156.352 24.3388 156.111 24.3388C155.148 24.3388 154.265 24.5744 153.543 24.9669C152.74 25.3595 152.098 25.9091 151.536 26.6157C150.974 27.3223 150.573 28.0289 150.252 28.8926C149.931 29.7562 149.77 30.6198 149.77 31.4835V40.5909H148.005V26.5372Z" fill="white"/>
<path d="M174.572 38C173.769 38.9422 172.806 39.6488 171.522 40.1983C170.318 40.7479 168.873 41.062 167.268 41.062C165.903 41.062 164.699 40.8264 163.576 40.3554C162.452 39.8843 161.489 39.1777 160.606 38.3926C159.803 37.5289 159.161 36.5868 158.68 35.4091C158.198 34.2314 158.037 33.0537 158.037 31.719C158.037 30.3843 158.278 29.1281 158.76 28.0289C159.241 26.8512 159.883 25.9091 160.686 25.0455C161.489 24.1818 162.532 23.5537 163.656 23.0826C164.779 22.6116 165.983 22.376 167.348 22.376C168.953 22.376 170.318 22.6901 171.522 23.2397C172.645 23.7893 173.608 24.5744 174.411 25.5165L173.047 26.5372C172.404 25.7521 171.682 25.124 170.719 24.7314C169.836 24.2603 168.632 24.0248 167.348 24.0248C166.304 24.0248 165.261 24.2603 164.378 24.6529C163.495 25.0455 162.693 25.595 162.051 26.3017C161.408 27.0083 160.927 27.7934 160.526 28.7355C160.205 29.6777 159.964 30.6983 159.964 31.719C159.964 32.8182 160.124 33.7603 160.526 34.7025C160.927 35.6446 161.408 36.5083 162.051 37.1364C162.693 37.843 163.495 38.3926 164.378 38.7851C165.261 39.1777 166.224 39.4132 167.268 39.4132C168.632 39.4132 169.756 39.1777 170.799 38.7066C171.843 38.2355 172.645 37.6074 173.287 36.8223L174.572 38Z" fill="white"/>
<path d="M177.622 14.7603H179.387V26.3802C179.628 25.9876 179.869 25.595 180.27 25.0454C180.672 24.5744 181.153 24.1033 181.715 23.7107C182.277 23.3182 182.999 23.0041 183.721 22.6901C184.524 22.4545 185.407 22.2975 186.37 22.2975C187.654 22.2975 188.778 22.4545 189.661 22.8471C190.544 23.2397 191.266 23.7107 191.828 24.4174C192.39 25.124 192.791 25.9091 193.032 26.9297C193.273 27.8719 193.353 28.9711 193.353 30.1488V40.6694H191.587V30.6983C191.587 29.3636 191.507 28.2645 191.266 27.4008C191.025 26.5372 190.704 25.8306 190.223 25.281C189.741 24.7314 189.179 24.4173 188.537 24.1818C187.895 23.9463 187.093 23.8678 186.21 23.8678C185.006 23.8678 184.043 24.1033 183.16 24.5744C182.277 25.0454 181.635 25.6735 181.073 26.3802C180.511 27.0868 180.11 27.8719 179.789 28.814C179.548 29.6777 179.387 30.5413 179.387 31.405V40.5909H177.622V14.7603Z" fill="white"/>
<path d="M204.831 14.7603H213.66C214.944 14.7603 216.067 14.9174 217.031 15.3099C217.994 15.624 218.716 16.095 219.278 16.7231C219.84 17.2727 220.321 17.9793 220.562 18.7645C220.803 19.5496 220.963 20.3347 220.963 21.1983C220.963 21.905 220.803 22.6116 220.642 23.2397C220.402 23.8678 220.081 24.4959 219.679 25.0454C219.278 25.595 218.796 25.9876 218.154 26.3802C217.592 26.7727 216.95 27.0083 216.228 27.0868C216.95 27.1653 217.673 27.4008 218.395 27.6364C219.117 27.8719 219.84 28.2645 220.402 28.814C221.044 29.2851 221.525 29.9917 221.927 30.7769C222.328 31.562 222.488 32.5826 222.488 33.7603C222.488 35.1735 222.248 36.2727 221.686 37.2149C221.124 38.0785 220.402 38.7851 219.519 39.3347C218.636 39.8843 217.512 40.1983 216.308 40.4339C215.104 40.6694 213.82 40.7479 212.456 40.7479H204.831V14.7603ZM212.536 26.3016C213.258 26.3016 213.981 26.2231 214.783 26.0661C215.506 25.9091 216.228 25.595 216.87 25.2025C217.512 24.8099 217.994 24.2603 218.395 23.6322C218.796 23.0041 218.957 22.219 218.957 21.3554C218.957 20.3347 218.796 19.4711 218.395 18.843C217.994 18.2149 217.512 17.7438 216.87 17.4297C216.228 17.1157 215.586 16.8802 214.783 16.8016C214.061 16.7231 213.258 16.6446 212.536 16.6446H206.677V26.4587H212.536V26.3016ZM211.974 38.8636C213.017 38.8636 213.981 38.7851 215.024 38.7066C216.067 38.6281 216.95 38.3926 217.753 38.0785C218.556 37.7645 219.198 37.2149 219.759 36.5083C220.241 35.8016 220.482 34.8595 220.482 33.6033C220.482 32.4256 220.241 31.4835 219.759 30.7769C219.278 30.0702 218.636 29.4421 217.913 29.0496C217.191 28.657 216.308 28.343 215.345 28.1859C214.382 28.0289 213.499 27.9504 212.616 27.9504H206.757V38.7851L211.974 38.8636Z" fill="white"/>
<path d="M238.942 40.6694C238.942 40.2769 238.862 39.8843 238.862 39.4917C238.862 39.0207 238.862 38.4711 238.862 37.6859C238.38 38.3926 237.819 38.9421 237.257 39.4132C236.695 39.8843 236.053 40.1983 235.491 40.5124C234.929 40.7479 234.287 40.9835 233.645 41.062C233.003 41.1405 232.441 41.219 231.959 41.219C231.157 41.219 230.434 41.1405 229.632 40.9835C228.829 40.8264 228.187 40.5124 227.545 40.1198C226.903 39.7273 226.421 39.1777 226.02 38.4711C225.619 37.7645 225.458 36.9008 225.458 35.8802C225.458 35.0165 225.619 34.2314 225.859 33.4463C226.18 32.6612 226.582 32.0331 227.224 31.4835C227.866 30.9339 228.669 30.4628 229.712 30.1488C230.755 29.8347 231.959 29.6777 233.404 29.6777C234.528 29.6777 235.491 29.6777 236.374 29.7562C237.257 29.8347 237.979 29.9132 238.621 29.9917V28.9711C238.621 27.9504 238.461 27.1653 238.3 26.5372C238.059 25.9091 237.738 25.3595 237.257 24.9669C236.775 24.5744 236.213 24.3388 235.491 24.1818C234.769 24.0248 233.966 23.9463 233.083 23.9463C231.558 23.9463 230.354 24.1818 229.471 24.5744C228.588 24.9669 227.866 25.438 227.384 25.8306L226.421 24.6529C226.903 24.1818 227.786 23.7107 228.909 23.1612C230.033 22.6116 231.398 22.376 233.083 22.376C235.491 22.376 237.337 22.8471 238.621 23.8678C239.905 24.8884 240.548 26.4587 240.548 28.7355V36.9008C240.548 37.4504 240.548 37.9215 240.548 38.3926C240.548 38.8636 240.548 39.2562 240.548 39.5702L240.628 40.6694H238.942ZM238.862 31.4835C238.3 31.3264 237.578 31.2479 236.775 31.1694C235.973 31.0909 234.849 31.0124 233.565 31.0124C232.2 31.0124 231.157 31.1694 230.354 31.4835C229.552 31.7975 228.909 32.1901 228.508 32.6612C228.107 33.1322 227.866 33.6818 227.706 34.2314C227.545 34.781 227.545 35.2521 227.545 35.7231C227.545 37.0578 228.027 38 228.909 38.5496C229.792 39.0992 230.916 39.4132 232.361 39.4132C233.244 39.4132 234.127 39.2562 234.929 38.9421C235.732 38.6281 236.454 38.2355 237.016 37.6859C237.578 37.1364 238.059 36.5868 238.461 35.8802C238.782 35.2521 238.942 34.5455 238.942 33.9174V31.4835H238.862Z" fill="white"/>
<path d="M245.123 26.5372C245.123 26.0661 245.123 25.595 245.123 25.281C245.123 24.9669 245.123 24.6529 245.123 24.3388C245.123 24.1033 245.123 23.7893 245.123 23.5537C245.123 23.3182 245.123 23.0041 245.042 22.7686H246.728C246.728 23.0826 246.808 23.3182 246.808 23.5537C246.808 23.7893 246.808 24.1033 246.888 24.4174C246.888 24.7314 246.888 25.0455 246.888 25.438C246.888 25.8306 246.888 26.2231 246.888 26.6942C247.129 26.3016 247.37 25.9091 247.771 25.3595C248.092 24.8884 248.574 24.4174 249.136 24.0248C249.698 23.6322 250.34 23.2397 251.062 23.0041C251.784 22.6901 252.667 22.6116 253.63 22.6116C254.192 22.6116 254.754 22.6901 255.155 22.8471L254.674 24.4959C254.513 24.4174 254.272 24.3388 254.032 24.3388C253.791 24.3388 253.55 24.3388 253.309 24.3388C252.346 24.3388 251.463 24.5744 250.741 24.9669C249.938 25.3595 249.296 25.9091 248.734 26.6157C248.173 27.3223 247.771 28.0289 247.45 28.8926C247.129 29.7562 246.969 30.6198 246.969 31.4835V40.5909H245.203V26.5372H245.123Z" fill="white"/>
<path d="M257.644 26.5372C257.644 26.0661 257.644 25.595 257.644 25.281C257.644 24.9669 257.644 24.6529 257.644 24.3388C257.644 24.1033 257.644 23.7893 257.644 23.5537C257.644 23.3182 257.644 23.0041 257.563 22.7686H259.249C259.249 23.0826 259.329 23.3182 259.329 23.5537C259.329 23.7893 259.329 24.0248 259.409 24.3388C259.409 24.5744 259.409 24.8884 259.409 25.281C259.409 25.6736 259.409 26.0661 259.409 26.5372C259.65 26.1446 259.891 25.6736 260.292 25.2025C260.694 24.7314 261.175 24.2603 261.737 23.7893C262.299 23.3967 263.021 23.0041 263.824 22.6901C264.626 22.376 265.509 22.2975 266.553 22.2975C267.837 22.2975 268.961 22.4545 269.844 22.8471C270.726 23.2397 271.449 23.7107 272.011 24.4174C272.572 25.124 272.974 25.9091 273.215 26.9298C273.455 27.8719 273.536 28.9711 273.536 30.1488V40.6694H271.77V30.6983C271.77 29.3636 271.609 28.2645 271.449 27.4008C271.208 26.5372 270.887 25.8306 270.405 25.281C269.924 24.7314 269.362 24.4174 268.72 24.1818C268.078 23.9463 267.275 23.8678 266.392 23.8678C265.188 23.8678 264.225 24.1033 263.342 24.5744C262.459 25.0455 261.817 25.6736 261.255 26.3802C260.694 27.0868 260.292 27.8719 259.971 28.814C259.73 29.6777 259.57 30.5413 259.57 31.405V40.5909H257.644V26.5372Z" fill="white"/>
<path d="M93.3456 59.5124C92.3022 60.6116 91.0983 61.1612 89.8141 61.1612C86.8443 61.1612 84.597 58.4132 84.597 55.6653C84.597 52.7603 86.7641 50.1694 89.7338 50.1694C91.9009 50.1694 93.2653 51.1116 93.9877 52.5248L93.1048 53.0744C92.3825 51.7397 91.1785 51.1116 89.6535 51.1116C87.1654 51.1116 85.6404 53.3099 85.6404 55.6653C85.6404 58.0992 87.4864 60.219 89.8141 60.219C91.0983 60.219 92.2219 59.6694 93.2653 58.4132V56.6074H90.7772V55.8223H94.1482V61.1612H93.1851V59.5124H93.3456Z" fill="white"/>
<path d="M100.328 61.0827V50.2479H104.984C106.91 50.2479 108.274 51.9752 108.274 53.624C108.274 55.1942 107.231 56.6074 105.786 56.843L108.515 61.0041H107.311L104.663 57H101.372V61.0041L100.328 61.0827ZM101.372 56.1364H105.064C106.348 56.1364 107.231 54.9587 107.231 53.624C107.231 52.2893 106.188 51.1901 104.984 51.1901H101.452L101.372 56.1364Z" fill="white"/>
<path d="M113.572 55.6653C113.572 52.7603 115.819 50.1694 118.789 50.1694C121.919 50.1694 124.006 52.9174 124.006 55.6653C124.006 58.5702 121.759 61.1612 118.789 61.1612C115.659 61.1612 113.572 58.4132 113.572 55.6653ZM118.789 60.219C121.277 60.219 122.882 57.9421 122.882 55.6653C122.882 53.3099 121.197 51.1901 118.789 51.1901C116.301 51.1901 114.696 53.4669 114.696 55.6653C114.696 58.0207 116.381 60.219 118.789 60.219Z" fill="white"/>
<path d="M137.891 55.6653V50.2479H139.015V55.6653C139.015 58.5703 137.731 61.0827 134.36 61.0827C130.828 61.0827 129.705 58.4132 129.705 55.6653V50.2479H130.748V55.6653C130.748 57.9422 131.551 60.1405 134.36 60.1405C137.169 60.219 137.891 57.9422 137.891 55.6653Z" fill="white"/>
<path d="M145.356 61.0827V50.2479H149.931C151.857 50.2479 153.222 51.9752 153.222 53.624C153.222 55.3512 151.937 57.0785 150.011 57.0785H146.399V61.0827H145.356ZM146.399 56.1364H149.931C151.215 56.1364 152.098 54.9587 152.098 53.624C152.098 52.2893 151.055 51.1901 149.851 51.1901H146.399V56.1364Z" fill="white"/>
</svg>
