<svg width="192" height="78" viewBox="0 0 192 78" fill="none" xmlns="http://www.w3.org/2000/svg">
<path d="M19.4799 53.5166C21.3249 51.8418 22.726 50.9526 23.8889 50.9526C24.4348 50.9526 25.0177 51.1228 25.6317 51.4645L24.639 53.6513C23.6477 53.2429 22.8281 52.9677 22.1445 52.9677C21.2554 52.9677 20.3321 53.4131 19.4785 54.3363V60.6242C19.4785 62.367 19.8883 62.913 21.6311 62.913V63.3923C20.5023 63.3583 19.3749 63.3228 18.246 63.3228C17.1527 63.3228 16.0578 63.3568 15 63.3923V62.913C16.6748 62.8804 17.1527 62.333 17.1527 60.6242V54.644C17.1527 52.6615 16.6748 51.8403 15.1701 51.8403C15.1361 51.8403 15.0681 51.8403 15 51.8403V51.3625C16.5387 51.2944 18.0419 51.1568 19.477 50.9867V53.5166" fill="#AD0922"/>
<path d="M33.1492 50.9526C36.8746 50.9526 39.8144 53.8569 39.8144 57.3781C39.8144 60.9319 36.8746 63.8036 33.1492 63.8036C29.4578 63.8036 26.484 60.8979 26.484 57.3781C26.484 53.8569 29.4593 50.9526 33.1492 50.9526ZM33.1492 63.2222C35.5075 63.2222 37.1823 61.0014 37.1823 57.3781C37.1823 53.7223 35.5415 51.5341 33.1492 51.5341C30.7553 51.5341 29.1146 53.7223 29.1146 57.3781C29.1146 61.0014 30.8249 63.2222 33.1492 63.2222Z" fill="#AD0922"/>
<path d="M48.6647 62.9146V63.394C47.5032 63.36 46.3403 63.3244 45.1789 63.3244C44.0501 63.3244 42.9227 63.3585 41.7938 63.394V62.9146C43.4686 62.8821 43.8784 62.3347 43.8784 60.6258V52.1838H42.1016V51.6719C44.3238 51.194 43.7764 49.9645 44.0501 47.6727C44.528 43.7077 46.4084 41.623 49.1085 41.623C50.0657 41.623 51.1591 41.8968 52.4241 42.4767L51.4328 45.6562L50.9875 45.452C50.9875 45.3144 51.023 45.2123 51.023 45.0762C51.023 43.4695 49.792 42.3066 48.425 42.3066C46.7502 42.3066 46.2708 43.6056 46.2708 46.4093V51.2265H49.3127V52.1838H46.2708V60.6258C46.2723 62.4367 46.7161 62.8821 48.6647 62.9146Z" fill="#AD0922"/>
<path d="M57.447 62.9146V63.394C56.2856 63.36 55.1227 63.3244 53.9613 63.3244C52.8324 63.3244 51.705 63.3585 50.5776 63.394V62.9146C52.2524 62.8821 52.6623 62.3347 52.6623 60.6258V52.1838H50.8839V51.6719C53.1061 51.194 52.5587 49.9645 52.8324 47.6727C53.3118 43.7077 55.1907 41.623 57.8908 41.623C58.8481 41.623 59.9414 41.8968 61.2064 42.4767L60.2151 45.6562L59.7713 45.452C59.7713 45.3144 59.8038 45.2123 59.8038 45.0762C59.8038 43.4695 58.5744 42.3066 57.2073 42.3066C55.5325 42.3066 55.0531 43.6056 55.0531 46.4093V51.2265H58.095V52.1838H55.0531V60.6258C55.0561 62.4367 55.5 62.8821 57.447 62.9146Z" fill="#AD0922"/>
<path d="M66.0607 63.804C62.3013 63.804 59.5671 60.9678 59.5671 57.2764C59.5671 53.6531 62.1992 50.9189 65.8225 50.9189C68.8984 50.9189 70.949 52.8334 71.0511 55.8413H61.9935C61.9935 60.2842 64.0441 62.8822 67.12 62.8822C68.5211 62.8822 69.8201 62.1647 70.9815 60.7281L71.3248 61.1039C69.9562 62.8822 68.2134 63.804 66.0607 63.804ZM68.6232 55.1903C68.5906 52.832 67.3597 51.4649 65.4792 51.4649C63.6343 51.4649 62.4034 52.7299 61.9935 55.1903H68.6232Z" fill="#AD0922"/>
<path d="M73.1683 73.1352C72.6889 73.1352 72.211 73.0331 71.7672 72.8615L72.3486 70.7428C72.9286 70.8789 73.3739 70.9485 73.6476 70.9485C75.2544 70.9485 76.006 70.0593 76.7235 68.1108L78.2977 63.7359L73.8888 53.9282C73.2733 52.5612 72.5557 51.8776 71.2908 51.8436V51.3657C72.214 51.3998 73.1712 51.3997 74.1625 51.3997C75.1197 51.3997 76.145 51.3998 77.2044 51.3657V51.8436C76.4187 51.9131 76.0415 52.2534 76.0415 52.8349C76.0415 53.1426 76.1095 53.5865 76.3152 53.9963L79.357 60.7635L81.6458 54.304C81.8175 53.8587 81.887 53.4844 81.887 53.1086C81.887 52.2534 81.4076 51.8436 80.4164 51.8436V51.3657C81.202 51.3657 81.9536 51.3997 82.7392 51.3997C83.4908 51.3997 84.2779 51.3657 85.0295 51.3657V51.8436C84.9954 51.8436 84.9614 51.8436 84.9614 51.8436C83.7645 51.8436 82.9434 52.5612 82.4315 53.9623L77.339 68.2499C76.1761 71.5284 75.1508 73.1352 73.1683 73.1352Z" fill="#AD0922"/>
<path d="M91.3499 62.9146V63.394C90.3246 63.36 89.2993 63.3245 88.24 63.3245C87.1792 63.3245 86.1198 63.3585 85.0265 63.394V62.9146C86.7013 62.8821 87.1126 62.3347 87.1126 60.6258V45.313C87.1126 43.3304 86.7013 42.5108 85.1966 42.5108C85.1626 42.5108 85.0945 42.5108 85.0265 42.5108V42.1009C86.6318 41.9974 88.1024 41.8272 89.4354 41.6216V53.4813C90.8705 51.8065 92.3752 50.9528 93.9805 50.9528C96.6465 50.9528 97.842 52.7978 97.842 56.5232V60.6258C97.842 62.3347 98.2518 62.8821 99.9266 62.9146V63.394C98.8332 63.36 97.7739 63.3245 96.7131 63.3245C95.6538 63.3245 94.6285 63.3585 93.6032 63.394V62.9146C95.1744 62.8466 95.5517 62.2666 95.5517 60.6258V56.319C95.5517 53.5168 94.8001 52.1838 92.9197 52.1838C91.6902 52.1838 90.4933 52.9028 89.4339 54.3024V60.6258C89.4354 62.2666 89.7772 62.8466 91.3499 62.9146Z" fill="#1C164E"/>
<path d="M107.96 50.9526C111.686 50.9526 114.624 53.8569 114.624 57.3781C114.624 60.9319 111.686 63.8036 107.96 63.8036C104.269 63.8036 101.295 60.8979 101.295 57.3781C101.295 53.8569 104.267 50.9526 107.96 50.9526ZM107.96 63.2222C110.319 63.2222 111.992 61.0014 111.992 57.3781C111.992 53.7223 110.353 51.5341 107.96 51.5341C105.568 51.5341 103.927 53.7223 103.927 57.3781C103.927 61.0014 105.636 63.2222 107.96 63.2222Z" fill="#1C164E"/>
<path d="M122.792 62.9149V63.3943C121.767 63.3602 120.742 63.3247 119.681 63.3247C118.622 63.3247 117.562 63.3588 116.468 63.3943V62.9149C118.142 62.8824 118.552 62.335 118.552 60.6261V54.646C118.552 52.6634 118.142 51.8423 116.639 51.8423C116.604 51.8423 116.537 51.8423 116.468 51.8423V51.3644C117.938 51.2964 119.373 51.1943 120.842 50.9886V53.4831C122.279 51.8083 123.818 50.9546 125.423 50.9546C127.098 50.9546 128.363 51.8438 129.148 53.5866C130.72 51.8438 132.224 50.9546 133.864 50.9546C136.53 50.9546 137.727 52.7995 137.727 56.5249V60.6276C137.727 62.3364 138.136 62.8839 139.811 62.9164V63.3958C138.718 63.3617 137.658 63.3262 136.599 63.3262C135.538 63.3262 134.481 63.3602 133.455 63.3958V62.9164C135.026 62.8483 135.402 62.2684 135.402 60.6276V56.3208C135.402 53.5186 134.685 52.1855 132.806 52.1855C131.575 52.1855 130.344 52.9046 129.284 54.3042V60.6276C129.284 62.2003 129.592 62.7463 130.993 62.9164V63.3958C130.072 63.3617 129.079 63.3262 128.088 63.3262C127.098 63.3262 126.105 63.3602 125.046 63.3958V62.9164C126.618 62.8483 126.994 62.2684 126.994 60.6276V56.3208C126.994 53.5186 126.241 52.1855 124.362 52.1855C123.097 52.1855 121.868 52.9386 120.841 54.3042V60.6276C120.842 62.2669 121.22 62.8469 122.792 62.9149Z" fill="#1C164E"/>
<path d="M147.672 63.804C143.912 63.804 141.178 60.9678 141.178 57.2764C141.178 53.6531 143.81 50.9189 147.432 50.9189C150.508 50.9189 152.559 52.8334 152.662 55.8413H143.605C143.605 60.2842 145.657 62.8822 148.733 62.8822C150.132 62.8822 151.431 62.1647 152.594 60.7281L152.937 61.1039C151.567 62.8822 149.824 63.804 147.672 63.804ZM150.236 55.1903C150.202 52.832 148.971 51.4649 147.092 51.4649C145.245 51.4649 144.014 52.7299 143.605 55.1903H150.236Z" fill="#1C164E"/>
<path d="M155.019 59.4629H155.497C155.874 61.8213 157.377 63.1898 159.292 63.1898C160.761 63.1898 161.72 62.2666 161.72 60.9676C161.72 59.3268 160.351 58.8815 158.267 57.8917C156.25 56.9345 155.191 56.0468 155.191 54.3024C155.191 52.4235 156.728 50.9528 158.983 50.9528C160.112 50.9528 160.931 51.4307 161.445 51.4307C161.854 51.4307 162.128 51.2606 162.196 50.8848H162.538V54.4385H162.059C161.751 52.5581 160.555 51.4988 158.983 51.4988C157.65 51.4988 156.796 52.2178 156.796 53.2416C156.796 54.4711 157.753 55.0185 159.496 55.8041C162.025 56.967 163.392 57.9243 163.392 60.0429C163.392 62.1275 161.613 63.7683 159.29 63.7683C157.821 63.7683 156.796 63.0167 156.213 63.0167C155.803 63.0167 155.529 63.2224 155.427 63.6322H155.018V59.4629" fill="#1C164E"/>
<path d="M69.9829 32.3836C76.4572 18.6331 92.8147 10.1289 105.006 11.5818C113.439 12.2564 123.56 16.2792 126.756 20.2458L119.336 28.5206C116.34 24.81 111.132 18.9616 99.863 17.1787C88.5004 15.3811 77.3923 19.6747 70.4016 32.4443L70.5407 32.6485L69.9829 32.3836Z" fill="#AD0922"/>
<path d="M151.73 14.2571C147.854 13.7954 146.824 13.97 143.972 14.445L155.861 5.40813L145.208 5.21875C128.088 21.7685 120.953 28.5225 111.468 43.3915L112.394 42.5733L121.323 34.8636C126.459 30.1085 138.268 20.6027 150.629 21.7685C161.971 22.8397 171.459 29.166 176.064 43.1222L176.666 42.9876C173.341 28.1555 164.895 15.8239 151.73 14.2571Z" fill="#1C164E"/>
</svg>
