<svg width="349" height="30" viewBox="0 0 349 30" fill="none" xmlns="http://www.w3.org/2000/svg">
<path d="M11.0922 29.48C7.73219 29.48 5.11885 28.4133 3.25219 26.28C1.41219 24.12 0.492188 21.1867 0.492188 17.48V1.16H4.01219V17.36C4.01219 20.08 4.61219 22.24 5.81219 23.84C7.03885 25.4133 8.79885 26.2 11.0922 26.2C13.3855 26.2 15.1322 25.4133 16.3322 23.84C17.5589 22.24 18.1722 20.08 18.1722 17.36V1.16H21.6922V17.48C21.6922 21.1867 20.7589 24.12 18.8922 26.28C17.0522 28.4133 14.4522 29.48 11.0922 29.48ZM53.7031 1.16V29H50.1831L35.2231 7.52V29H31.7031V1.16H35.2231L50.1831 22.64V1.16H53.7031ZM63.3353 1.16H66.8553V29H63.3353V1.16ZM88.3078 29.48C85.6145 29.48 83.3078 28.88 81.3878 27.68C79.4945 26.48 78.0411 24.8 77.0278 22.64C76.0411 20.48 75.5478 17.96 75.5478 15.08C75.5478 12.2 76.0411 9.68 77.0278 7.52C78.0411 5.36 79.4945 3.68 81.3878 2.48C83.3078 1.28 85.6145 0.68 88.3078 0.68C91.0011 0.68 93.2945 1.28 95.1878 2.48C97.1078 3.68 98.5611 5.36 99.5478 7.52C100.561 9.68 101.068 12.2 101.068 15.08C101.068 17.96 100.561 20.48 99.5478 22.64C98.5611 24.8 97.1078 26.48 95.1878 27.68C93.2945 28.88 91.0011 29.48 88.3078 29.48ZM88.3078 26.28C91.2945 26.28 93.5345 25.28 95.0278 23.28C96.5211 21.2533 97.2678 18.52 97.2678 15.08C97.2678 11.64 96.5211 8.92 95.0278 6.92C93.5345 4.89333 91.2945 3.88 88.3078 3.88C85.3211 3.88 83.0811 4.89333 81.5878 6.92C80.0945 8.92 79.3478 11.64 79.3478 15.08C79.3478 18.52 80.0945 21.2533 81.5878 23.28C83.0811 25.28 85.3211 26.28 88.3078 26.28ZM132.102 1.16V29H128.582L113.622 7.52V29H110.102V1.16H113.622L128.582 22.64V1.16H132.102ZM152.345 15.12C152.345 12.24 152.851 9.72 153.865 7.56C154.878 5.37333 156.371 3.68 158.345 2.48C160.345 1.28 162.745 0.68 165.545 0.68C167.145 0.68 168.651 0.88 170.065 1.28C171.478 1.65333 172.731 2.17333 173.825 2.84L173.785 6.8H173.625C172.585 5.89333 171.345 5.18666 169.905 4.68C168.491 4.14667 166.998 3.88 165.425 3.88C162.305 3.88 159.971 4.89333 158.425 6.92C156.905 8.92 156.145 11.6533 156.145 15.12C156.145 18.56 156.891 21.28 158.385 23.28C159.905 25.28 162.185 26.28 165.225 26.28C166.478 26.28 167.625 26.12 168.665 25.8C169.705 25.4533 170.611 24.9733 171.385 24.36V18.4H165.505V15.32H174.905V26.2C173.251 27.2933 171.678 28.12 170.185 28.68C168.718 29.2133 167.051 29.48 165.185 29.48C162.465 29.48 160.131 28.88 158.185 27.68C156.265 26.48 154.811 24.8 153.825 22.64C152.838 20.48 152.345 17.9733 152.345 15.12ZM200.916 21.64H187.516L184.676 29H181.156L191.876 1.16H196.756L207.476 29H203.756L200.916 21.64ZM199.756 18.64L194.236 4.24L188.676 18.64H199.756ZM230.085 29L224.445 18.08H224.045H217.645V29H214.125V1.16H223.565C226.898 1.16 229.378 1.86667 231.005 3.28C232.632 4.66667 233.445 6.70667 233.445 9.4C233.445 11.4 233.005 13.0933 232.125 14.48C231.245 15.8667 229.952 16.8533 228.245 17.44L234.325 29H230.085ZM223.605 14.76C225.685 14.76 227.205 14.36 228.165 13.56C229.152 12.7333 229.645 11.3467 229.645 9.4C229.645 7.61333 229.152 6.36 228.165 5.64C227.205 4.89333 225.672 4.52 223.565 4.52H217.645V14.76H223.605ZM251.533 1.16C255.666 1.16 258.826 2.38667 261.013 4.84C263.199 7.29333 264.293 10.7067 264.293 15.08C264.293 19.4533 263.199 22.8667 261.013 25.32C258.826 27.7733 255.666 29 251.533 29H242.133V1.16H251.533ZM251.813 25.64C254.693 25.64 256.853 24.7067 258.293 22.84C259.759 20.9467 260.493 18.36 260.493 15.08C260.493 11.8 259.759 9.22667 258.293 7.36C256.853 5.46667 254.693 4.52 251.813 4.52H245.653V25.64H251.813ZM276.864 4.52V13.32H289.064V16.52H276.864V25.64H289.944V29H273.344V1.16H289.944V4.52H276.864ZM320.93 1.16V29H317.41L302.45 7.52V29H298.93V1.16H302.45L317.41 22.64V1.16H320.93ZM338.962 29.48C337.415 29.48 335.802 29.28 334.122 28.88C332.442 28.48 330.855 27.9333 329.362 27.24V23.44C331.122 24.4 332.749 25.1067 334.242 25.56C335.762 26.0133 337.255 26.24 338.722 26.24C340.562 26.24 341.989 25.8267 343.002 25C344.015 24.1733 344.522 23.04 344.522 21.6C344.522 20.6133 344.242 19.7867 343.682 19.12C343.122 18.4533 342.415 17.92 341.562 17.52C340.709 17.12 339.562 16.68 338.122 16.2C336.389 15.6133 334.989 15.0533 333.922 14.52C332.882 13.9867 331.989 13.2267 331.242 12.24C330.495 11.2533 330.122 9.97333 330.122 8.4C330.122 6.05333 330.975 4.18667 332.682 2.8C334.389 1.38667 336.682 0.68 339.562 0.68C342.362 0.68 344.935 1.28 347.282 2.48V6.16C344.642 4.66667 342.069 3.92 339.562 3.92C337.722 3.92 336.282 4.29333 335.242 5.04C334.202 5.76 333.682 6.76 333.682 8.04C333.682 8.92 333.949 9.65333 334.482 10.24C335.015 10.8267 335.669 11.3067 336.442 11.68C337.215 12.0267 338.309 12.4533 339.722 12.96C341.482 13.5467 342.922 14.12 344.042 14.68C345.162 15.24 346.109 16.0533 346.882 17.12C347.682 18.1867 348.082 19.56 348.082 21.24C348.082 22.8933 347.709 24.3467 346.962 25.6C346.215 26.8267 345.149 27.7867 343.762 28.48C342.375 29.1467 340.775 29.48 338.962 29.48Z" fill="black"/>
</svg>
