<svg width="148" height="56" viewBox="0 0 148 56" fill="none" xmlns="http://www.w3.org/2000/svg">
<path d="M32.0994 22.36C29.5794 22.36 27.6194 21.56 26.2194 19.96C24.8394 18.34 24.1494 16.14 24.1494 13.36V1.12H26.7894V13.27C26.7894 15.31 27.2394 16.93 28.1394 18.13C29.0594 19.31 30.3794 19.9 32.0994 19.9C33.8194 19.9 35.1294 19.31 36.0294 18.13C36.9494 16.93 37.4094 15.31 37.4094 13.27V1.12H40.0494V13.36C40.0494 16.14 39.3494 18.34 37.9494 19.96C36.5694 21.56 34.6194 22.36 32.0994 22.36ZM64.0576 1.12V22H61.4176L50.1976 5.89V22H47.5576V1.12H50.1976L61.4176 17.23V1.12H64.0576ZM71.2818 1.12H73.9218V22H71.2818V1.12ZM90.0111 22.36C87.9911 22.36 86.2611 21.91 84.8211 21.01C83.4011 20.11 82.3111 18.85 81.5511 17.23C80.8111 15.61 80.4411 13.72 80.4411 11.56C80.4411 9.4 80.8111 7.51 81.5511 5.89C82.3111 4.27 83.4011 3.01 84.8211 2.11C86.2611 1.21 87.9911 0.76 90.0111 0.76C92.0311 0.76 93.7511 1.21 95.1711 2.11C96.6111 3.01 97.7011 4.27 98.4411 5.89C99.2011 7.51 99.5811 9.4 99.5811 11.56C99.5811 13.72 99.2011 15.61 98.4411 17.23C97.7011 18.85 96.6111 20.11 95.1711 21.01C93.7511 21.91 92.0311 22.36 90.0111 22.36ZM90.0111 19.96C92.2511 19.96 93.9311 19.21 95.0511 17.71C96.1711 16.19 96.7311 14.14 96.7311 11.56C96.7311 8.98 96.1711 6.94 95.0511 5.44C93.9311 3.92 92.2511 3.16 90.0111 3.16C87.7711 3.16 86.0911 3.92 84.9711 5.44C83.8511 6.94 83.2911 8.98 83.2911 11.56C83.2911 14.14 83.8511 16.19 84.9711 17.71C86.0911 19.21 87.7711 19.96 90.0111 19.96ZM122.856 1.12V22H120.216L108.996 5.89V22H106.356V1.12H108.996L120.216 17.23V1.12H122.856ZM0.328828 44.59C0.328828 42.43 0.708828 40.54 1.46883 38.92C2.22883 37.28 3.34883 36.01 4.82883 35.11C6.32883 34.21 8.12883 33.76 10.2288 33.76C11.4288 33.76 12.5588 33.91 13.6188 34.21C14.6788 34.49 15.6188 34.88 16.4388 35.38L16.4088 38.35H16.2888C15.5088 37.67 14.5788 37.14 13.4988 36.76C12.4388 36.36 11.3188 36.16 10.1388 36.16C7.79883 36.16 6.04883 36.92 4.88883 38.44C3.74883 39.94 3.17883 41.99 3.17883 44.59C3.17883 47.17 3.73883 49.21 4.85883 50.71C5.99883 52.21 7.70883 52.96 9.98883 52.96C10.9288 52.96 11.7888 52.84 12.5688 52.6C13.3488 52.34 14.0288 51.98 14.6088 51.52V47.05H10.1988V44.74H17.2488V52.9C16.0088 53.72 14.8288 54.34 13.7088 54.76C12.6088 55.16 11.3588 55.36 9.95883 55.36C7.91883 55.36 6.16883 54.91 4.70883 54.01C3.26883 53.11 2.17883 51.85 1.43883 50.23C0.698828 48.61 0.328828 46.73 0.328828 44.59ZM36.757 49.48H26.707L24.577 55H21.937L29.977 34.12H33.637L41.677 55H38.887L36.757 49.48ZM35.887 47.23L31.747 36.43L27.577 47.23H35.887ZM58.6341 55L54.4041 46.81H54.1041H49.3041V55H46.6641V34.12H53.7441C56.2441 34.12 58.1041 34.65 59.3241 35.71C60.5441 36.75 61.1541 38.28 61.1541 40.3C61.1541 41.8 60.8241 43.07 60.1641 44.11C59.5041 45.15 58.5341 45.89 57.2541 46.33L61.8141 55H58.6341ZM53.7741 44.32C55.3341 44.32 56.4741 44.02 57.1941 43.42C57.9341 42.8 58.3041 41.76 58.3041 40.3C58.3041 38.96 57.9341 38.02 57.1941 37.48C56.4741 36.92 55.3241 36.64 53.7441 36.64H49.3041V44.32H53.7741ZM74.7199 34.12C77.8199 34.12 80.1899 35.04 81.8299 36.88C83.4699 38.72 84.2899 41.28 84.2899 44.56C84.2899 47.84 83.4699 50.4 81.8299 52.24C80.1899 54.08 77.8199 55 74.7199 55H67.6699V34.12H74.7199ZM74.9299 52.48C77.0899 52.48 78.7099 51.78 79.7899 50.38C80.8899 48.96 81.4399 47.02 81.4399 44.56C81.4399 42.1 80.8899 40.17 79.7899 38.77C78.7099 37.35 77.0899 36.64 74.9299 36.64H70.3099V52.48H74.9299ZM93.7181 36.64V43.24H102.868V45.64H93.7181V52.48H103.528V55H91.0781V34.12H103.528V36.64H93.7181ZM126.768 34.12V55H124.128L112.908 38.89V55H110.268V34.12H112.908L124.128 50.23V34.12H126.768ZM140.292 55.36C139.132 55.36 137.922 55.21 136.662 54.91C135.402 54.61 134.212 54.2 133.092 53.68V50.83C134.412 51.55 135.632 52.08 136.752 52.42C137.892 52.76 139.012 52.93 140.112 52.93C141.492 52.93 142.562 52.62 143.322 52C144.082 51.38 144.462 50.53 144.462 49.45C144.462 48.71 144.252 48.09 143.832 47.59C143.412 47.09 142.882 46.69 142.242 46.39C141.602 46.09 140.742 45.76 139.662 45.4C138.362 44.96 137.312 44.54 136.512 44.14C135.732 43.74 135.062 43.17 134.502 42.43C133.942 41.69 133.662 40.73 133.662 39.55C133.662 37.79 134.302 36.39 135.582 35.35C136.862 34.29 138.582 33.76 140.742 33.76C142.842 33.76 144.772 34.21 146.532 35.11V37.87C144.552 36.75 142.622 36.19 140.742 36.19C139.362 36.19 138.282 36.47 137.502 37.03C136.722 37.57 136.332 38.32 136.332 39.28C136.332 39.94 136.532 40.49 136.932 40.93C137.332 41.37 137.822 41.73 138.402 42.01C138.982 42.27 139.802 42.59 140.862 42.97C142.182 43.41 143.262 43.84 144.102 44.26C144.942 44.68 145.652 45.29 146.232 46.09C146.832 46.89 147.132 47.92 147.132 49.18C147.132 50.42 146.852 51.51 146.292 52.45C145.732 53.37 144.932 54.09 143.892 54.61C142.852 55.11 141.652 55.36 140.292 55.36Z" fill="black"/>
</svg>
