<svg width="148" height="56" fill="none" xmlns="http://www.w3.org/2000/svg"><path d="M32.1 22.36c-2.52 0-4.48-.8-5.88-2.4-1.38-1.62-2.07-3.82-2.07-6.6V1.12h2.64v12.15c0 2.04.45 3.66 1.35 4.86.92 1.18 2.24 1.77 3.96 1.77 1.72 0 3.03-.59 3.93-1.77.92-1.2 1.38-2.82 1.38-4.86V1.12h2.64v12.24c0 2.78-.7 4.98-2.1 6.6-1.38 1.6-3.33 2.4-5.85 2.4ZM64.057 1.12V22h-2.64L50.198 5.89V22h-2.64V1.12h2.64l11.22 16.11V1.12h2.64Zm7.224 0h2.64V22h-2.64V1.12Zm18.73 21.24c-2.02 0-3.75-.45-5.19-1.35-1.42-.9-2.51-2.16-3.27-3.78-.74-1.62-1.11-3.51-1.11-5.67s.37-4.05 1.11-5.67c.76-1.62 1.85-2.88 3.27-3.78 1.44-.9 3.17-1.35 5.19-1.35 2.02 0 3.74.45 5.16 1.35 1.44.9 2.53 2.16 3.27 3.78.76 1.62 1.14 3.51 1.14 5.67s-.38 4.05-1.14 5.67c-.74 1.62-1.83 2.88-3.27 3.78-1.42.9-3.14 1.35-5.16 1.35Zm0-2.4c2.24 0 3.92-.75 5.04-2.25 1.12-1.52 1.68-3.57 1.68-6.15 0-2.58-.56-4.62-1.68-6.12-1.12-1.52-2.8-2.28-5.04-2.28s-3.92.76-5.04 2.28c-1.12 1.5-1.68 3.54-1.68 6.12s.56 4.63 1.68 6.15c1.12 1.5 2.8 2.25 5.04 2.25Zm32.844-18.84V22h-2.64l-11.22-16.11V22h-2.64V1.12h2.64l11.22 16.11V1.12h2.64ZM.329 44.59c0-2.16.38-4.05 1.14-5.67.76-1.64 1.88-2.91 3.36-3.81 1.5-.9 3.3-1.35 5.4-1.35 1.2 0 2.33.15 3.39.45 1.06.28 2 .67 2.82 1.17l-.03 2.97h-.12c-.78-.68-1.71-1.21-2.79-1.59-1.06-.4-2.18-.6-3.36-.6-2.34 0-4.09.76-5.25 2.28-1.14 1.5-1.71 3.55-1.71 6.15 0 2.58.56 4.62 1.68 6.12 1.14 1.5 2.85 2.25 5.13 2.25.94 0 1.8-.12 2.58-.36.78-.26 1.46-.62 2.04-1.08v-4.47h-4.41v-2.31h7.05v8.16c-1.24.82-2.42 1.44-3.54 1.86-1.1.4-2.35.6-3.75.6-2.04 0-3.79-.45-5.25-1.35-1.44-.9-2.53-2.16-3.27-3.78-.74-1.62-1.11-3.5-1.11-5.64Zm36.428 4.89h-10.05L24.577 55h-2.64l8.04-20.88h3.66L41.677 55h-2.79l-2.13-5.52Zm-.87-2.25-4.14-10.8-4.17 10.8h8.31ZM58.634 55l-4.23-8.19h-5.1V55h-2.64V34.12h7.08c2.5 0 4.36.53 5.58 1.59 1.22 1.04 1.83 2.57 1.83 4.59 0 1.5-.33 2.77-.99 3.81-.66 1.04-1.63 1.78-2.91 2.22l4.56 8.67h-3.18Zm-4.86-10.68c1.56 0 2.7-.3 3.42-.9.74-.62 1.11-1.66 1.11-3.12 0-1.34-.37-2.28-1.11-2.82-.72-.56-1.87-.84-3.45-.84h-4.44v7.68h4.47Zm20.946-10.2c3.1 0 5.47.92 7.11 2.76 1.64 1.84 2.46 4.4 2.46 7.68 0 3.28-.82 5.84-2.46 7.68-1.64 1.84-4.01 2.76-7.11 2.76h-7.05V34.12h7.05Zm.21 18.36c2.16 0 3.78-.7 4.86-2.1 1.1-1.42 1.65-3.36 1.65-5.82 0-2.46-.55-4.39-1.65-5.79-1.08-1.42-2.7-2.13-4.86-2.13h-4.62v15.84h4.62Zm18.788-15.84v6.6h9.15v2.4h-9.15v6.84h9.81V55h-12.45V34.12h12.45v2.52h-9.81Zm33.05-2.52V55h-2.64l-11.22-16.11V55h-2.64V34.12h2.64l11.22 16.11V34.12h2.64Zm13.524 21.24c-1.16 0-2.37-.15-3.63-.45-1.26-.3-2.45-.71-3.57-1.23v-2.85c1.32.72 2.54 1.25 3.66 1.59 1.14.34 2.26.51 3.36.51 1.38 0 2.45-.31 3.21-.93.76-.62 1.14-1.47 1.14-2.55 0-.74-.21-1.36-.63-1.86-.42-.5-.95-.9-1.59-1.2-.64-.3-1.5-.63-2.58-.99-1.3-.44-2.35-.86-3.15-1.26-.78-.4-1.45-.97-2.01-1.71-.56-.74-.84-1.7-.84-2.88 0-1.76.64-3.16 1.92-4.2 1.28-1.06 3-1.59 5.16-1.59 2.1 0 4.03.45 5.79 1.35v2.76c-1.98-1.12-3.91-1.68-5.79-1.68-1.38 0-2.46.28-3.24.84-.78.54-1.17 1.29-1.17 2.25 0 .66.2 1.21.6 1.65.4.44.89.8 1.47 1.08.58.26 1.4.58 2.46.96 1.32.44 2.4.87 3.24 1.29.84.42 1.55 1.03 2.13 1.83.6.8.9 1.83.9 3.09 0 1.24-.28 2.33-.84 3.27-.56.92-1.36 1.64-2.4 2.16-1.04.5-2.24.75-3.6.75Z" fill="#000"/></svg>