<svg width="349" height="30" fill="none" xmlns="http://www.w3.org/2000/svg"><path d="M11.092 29.48c-3.36 0-5.973-1.067-7.84-3.2-1.84-2.16-2.76-5.093-2.76-8.8V1.16h3.52v16.2c0 2.72.6 4.88 1.8 6.48 1.227 1.573 2.987 2.36 5.28 2.36s4.04-.787 5.24-2.36c1.227-1.6 1.84-3.76 1.84-6.48V1.16h3.52v16.32c0 3.707-.933 6.64-2.8 8.8-1.84 2.133-4.44 3.2-7.8 3.2ZM53.703 1.16V29h-3.52L35.223 7.52V29h-3.52V1.16h3.52l14.96 21.48V1.16h3.52Zm9.632 0h3.52V29h-3.52V1.16Zm24.973 28.32c-2.694 0-5-.6-6.92-1.8-1.894-1.2-3.347-2.88-4.36-5.04-.987-2.16-1.48-4.68-1.48-7.56s.493-5.4 1.48-7.56c1.013-2.16 2.466-3.84 4.36-5.04 1.92-1.2 4.227-1.8 6.92-1.8 2.693 0 4.986.6 6.88 1.8 1.92 1.2 3.373 2.88 4.36 5.04 1.013 2.16 1.52 4.68 1.52 7.56s-.507 5.4-1.52 7.56c-.987 2.16-2.44 3.84-4.36 5.04-1.894 1.2-4.187 1.8-6.88 1.8Zm0-3.2c2.986 0 5.226-1 6.72-3 1.493-2.027 2.24-4.76 2.24-8.2 0-3.44-.747-6.16-2.24-8.16-1.494-2.027-3.734-3.04-6.72-3.04-2.987 0-5.227 1.013-6.72 3.04-1.493 2-2.24 4.72-2.24 8.16 0 3.44.746 6.173 2.24 8.2 1.493 2 3.733 3 6.72 3Zm43.794-25.12V29h-3.52l-14.96-21.48V29h-3.52V1.16h3.52l14.96 21.48V1.16h3.52Zm20.243 13.96c0-2.88.506-5.4 1.52-7.56 1.013-2.187 2.506-3.88 4.48-5.08 2-1.2 4.4-1.8 7.2-1.8 1.6 0 3.106.2 4.52.6 1.413.373 2.666.893 3.76 1.56l-.04 3.96h-.16c-1.04-.907-2.28-1.613-3.72-2.12a12.587 12.587 0 0 0-4.48-.8c-3.12 0-5.454 1.013-7 3.04-1.52 2-2.28 4.733-2.28 8.2 0 3.44.746 6.16 2.24 8.16 1.52 2 3.8 3 6.84 3 1.253 0 2.4-.16 3.44-.48 1.04-.347 1.946-.827 2.72-1.44V18.4h-5.88v-3.08h9.4V26.2c-1.654 1.093-3.227 1.92-4.72 2.48-1.467.533-3.134.8-5 .8-2.72 0-5.054-.6-7-1.8-1.92-1.2-3.374-2.88-4.36-5.04-.987-2.16-1.48-4.667-1.48-7.52Zm48.571 6.52h-13.4l-2.84 7.36h-3.52l10.72-27.84h4.88L207.476 29h-3.72l-2.84-7.36Zm-1.16-3-5.52-14.4-5.56 14.4h11.08ZM230.085 29l-5.64-10.92h-6.8V29h-3.52V1.16h9.44c3.333 0 5.813.707 7.44 2.12 1.627 1.387 2.44 3.427 2.44 6.12 0 2-.44 3.693-1.32 5.08-.88 1.387-2.173 2.373-3.88 2.96l6.08 11.56h-4.24Zm-6.48-14.24c2.08 0 3.6-.4 4.56-1.2.987-.827 1.48-2.213 1.48-4.16 0-1.787-.493-3.04-1.48-3.76-.96-.747-2.493-1.12-4.6-1.12h-5.92v10.24h5.96Zm27.928-13.6c4.133 0 7.293 1.227 9.48 3.68 2.186 2.453 3.28 5.867 3.28 10.24s-1.094 7.787-3.28 10.24c-2.187 2.453-5.347 3.68-9.48 3.68h-9.4V1.16h9.4Zm.28 24.48c2.88 0 5.04-.933 6.48-2.8 1.466-1.893 2.2-4.48 2.2-7.76 0-3.28-.734-5.853-2.2-7.72-1.44-1.893-3.6-2.84-6.48-2.84h-6.16v21.12h6.16Zm25.051-21.12v8.8h12.2v3.2h-12.2v9.12h13.08V29h-16.6V1.16h16.6v3.36h-13.08Zm44.066-3.36V29h-3.52L302.45 7.52V29h-3.52V1.16h3.52l14.96 21.48V1.16h3.52Zm18.032 28.32c-1.547 0-3.16-.2-4.84-.6-1.68-.4-3.267-.947-4.76-1.64v-3.8c1.76.96 3.387 1.667 4.88 2.12 1.52.453 3.013.68 4.48.68 1.84 0 3.267-.413 4.28-1.24 1.013-.827 1.52-1.96 1.52-3.4 0-.987-.28-1.813-.84-2.48-.56-.667-1.267-1.2-2.12-1.6-.853-.4-2-.84-3.44-1.32-1.733-.587-3.133-1.147-4.2-1.68-1.04-.533-1.933-1.293-2.68-2.28-.747-.987-1.12-2.267-1.12-3.84 0-2.347.853-4.213 2.56-5.6 1.707-1.413 4-2.12 6.88-2.12 2.8 0 5.373.6 7.72 1.8v3.68c-2.64-1.493-5.213-2.24-7.72-2.24-1.84 0-3.28.373-4.32 1.12-1.04.72-1.56 1.72-1.56 3 0 .88.267 1.613.8 2.2a6.334 6.334 0 0 0 1.96 1.44c.773.347 1.867.773 3.28 1.28 1.76.587 3.2 1.16 4.32 1.72s2.067 1.373 2.84 2.44c.8 1.067 1.2 2.44 1.2 4.12 0 1.653-.373 3.107-1.12 4.36-.747 1.227-1.813 2.187-3.2 2.88-1.387.667-2.987 1-4.8 1Z" fill="#000"/></svg>