<svg width="192" height="78" fill="none" xmlns="http://www.w3.org/2000/svg"><path d="M19.48 53.517c1.845-1.675 3.246-2.564 4.409-2.564.546 0 1.129.17 1.743.511l-.993 2.187c-.991-.408-1.81-.683-2.494-.683-.89 0-1.813.445-2.666 1.368v6.288c0 1.743.41 2.289 2.152 2.289v.48c-1.129-.035-2.256-.07-3.385-.07-1.093 0-2.188.034-3.246.07v-.48c1.675-.033 2.153-.58 2.153-2.289v-5.98c0-1.983-.478-2.804-1.983-2.804H15v-.478a61 61 0 0 0 4.477-.375v2.53m13.673-2.564c3.725 0 6.664 2.904 6.664 6.425 0 3.554-2.94 6.426-6.665 6.426-3.691 0-6.665-2.906-6.665-6.426 0-3.521 2.975-6.425 6.665-6.425Zm0 12.27c2.358 0 4.032-2.222 4.032-5.845 0-3.656-1.64-5.844-4.033-5.844-2.394 0-4.034 2.188-4.034 5.844 0 3.623 1.71 5.844 4.034 5.844Zm15.515-.308v.479c-1.162-.034-2.325-.07-3.486-.07-1.129 0-2.256.035-3.385.07v-.48c1.675-.032 2.084-.58 2.084-2.288v-8.442h-1.776v-.512c2.222-.478 1.674-1.707 1.948-4 .478-3.964 2.358-6.049 5.059-6.049.957 0 2.05.274 3.315.854l-.991 3.18-.446-.205c0-.138.036-.24.036-.376 0-1.607-1.231-2.77-2.598-2.77-1.675 0-2.154 1.3-2.154 4.103v4.818h3.042v.957H46.27v8.442c.001 1.81.445 2.256 2.394 2.289Zm8.782 0v.479c-1.161-.034-2.324-.07-3.486-.07-1.129 0-2.256.035-3.383.07v-.48c1.674-.032 2.084-.58 2.084-2.288v-8.442h-1.778v-.512c2.222-.478 1.675-1.707 1.948-4 .48-3.964 2.359-6.049 5.059-6.049.957 0 2.05.274 3.315.854l-.99 3.18-.445-.205c0-.138.033-.24.033-.376 0-1.607-1.23-2.77-2.597-2.77-1.675 0-2.154 1.3-2.154 4.103v4.818h3.042v.957h-3.042v8.442c.003 1.81.447 2.256 2.394 2.289Zm8.613.889c-3.759 0-6.493-2.836-6.493-6.528 0-3.623 2.632-6.357 6.256-6.357 3.075 0 5.126 1.914 5.228 4.922h-9.058c0 4.443 2.051 7.041 5.127 7.041 1.401 0 2.7-.717 3.861-2.154l.344.376c-1.369 1.778-3.112 2.7-5.264 2.7Zm2.563-8.614c-.032-2.358-1.263-3.725-3.144-3.725-1.845 0-3.076 1.265-3.486 3.725h6.63Zm4.545 17.945a3.91 3.91 0 0 1-1.4-.273l.58-2.12c.58.137 1.026.206 1.3.206 1.606 0 2.358-.889 3.076-2.837l1.574-4.375-4.41-9.808c-.615-1.367-1.332-2.05-2.597-2.084v-.478c.923.034 1.88.034 2.871.034.958 0 1.983 0 3.042-.034v.478c-.785.07-1.162.41-1.162.99 0 .309.067.752.273 1.162l3.042 6.767 2.289-6.459c.171-.445.241-.82.241-1.195 0-.856-.48-1.265-1.47-1.265v-.478c.785 0 1.537.034 2.322.034.752 0 1.539-.034 2.29-.034v.478h-.068c-1.197 0-2.018.717-2.53 2.118L77.34 68.25c-1.163 3.278-2.188 4.885-4.17 4.885Z" fill="#AD0922"/><path d="M91.35 62.915v.479c-1.025-.034-2.05-.07-3.11-.07s-2.12.035-3.213.07v-.48c1.674-.032 2.086-.58 2.086-2.288V45.313c0-1.983-.412-2.802-1.916-2.802h-.17v-.41a50 50 0 0 0 4.408-.48v11.86c1.436-1.675 2.94-2.528 4.546-2.528 2.666 0 3.861 1.845 3.861 5.57v4.103c0 1.709.41 2.256 2.085 2.289v.479c-1.094-.034-2.153-.07-3.214-.07-1.06 0-2.084.035-3.11.07v-.48c1.571-.067 1.949-.647 1.949-2.288v-4.307c0-2.802-.752-4.135-2.632-4.135-1.23 0-2.427.719-3.486 2.118v6.324c.001 1.64.343 2.22 1.916 2.289Zm16.61-11.962c3.726 0 6.664 2.904 6.664 6.425 0 3.554-2.938 6.426-6.664 6.426-3.691 0-6.665-2.906-6.665-6.426 0-3.521 2.972-6.425 6.665-6.425Zm0 12.27c2.359 0 4.032-2.222 4.032-5.845 0-3.656-1.639-5.844-4.032-5.844-2.392 0-4.033 2.188-4.033 5.844 0 3.623 1.709 5.844 4.033 5.844Zm14.832-.308v.48a90.158 90.158 0 0 0-3.111-.07c-1.059 0-2.119.034-3.213.07v-.48c1.674-.033 2.084-.58 2.084-2.289v-5.98c0-1.983-.41-2.804-1.913-2.804h-.171v-.478c1.47-.068 2.905-.17 4.374-.375v2.494c1.437-1.675 2.976-2.528 4.581-2.528 1.675 0 2.94.889 3.725 2.632 1.572-1.743 3.076-2.632 4.716-2.632 2.666 0 3.863 1.845 3.863 5.57v4.103c0 1.708.409 2.256 2.084 2.288v.48c-1.093-.034-2.153-.07-3.212-.07a90.65 90.65 0 0 0-3.144.07v-.48c1.571-.068 1.947-.648 1.947-2.288V56.32c0-2.802-.717-4.136-2.596-4.136-1.231 0-2.462.72-3.522 2.12v6.323c0 1.572.308 2.118 1.709 2.288v.48a78.675 78.675 0 0 0-2.905-.07c-.99 0-1.983.034-3.042.07v-.48c1.572-.068 1.948-.648 1.948-2.288V56.32c0-2.802-.753-4.136-2.632-4.136-1.265 0-2.494.754-3.521 2.12v6.323c.001 1.639.379 2.219 1.951 2.287Zm24.88.889c-3.76 0-6.494-2.836-6.494-6.528 0-3.623 2.632-6.357 6.254-6.357 3.076 0 5.127 1.914 5.23 4.922h-9.057c0 4.443 2.052 7.041 5.128 7.041 1.399 0 2.698-.717 3.861-2.154l.343.376c-1.37 1.778-3.113 2.7-5.265 2.7Zm2.564-8.614c-.034-2.358-1.265-3.725-3.144-3.725-1.847 0-3.078 1.265-3.487 3.725h6.631Zm4.783 4.273h.478c.377 2.358 1.88 3.727 3.795 3.727 1.469 0 2.428-.923 2.428-2.222 0-1.641-1.369-2.087-3.453-3.076-2.017-.958-3.076-1.845-3.076-3.59 0-1.879 1.537-3.35 3.792-3.35 1.129 0 1.948.479 2.462.479.409 0 .683-.17.751-.546h.342v3.553h-.479c-.308-1.88-1.504-2.94-3.076-2.94-1.333 0-2.187.72-2.187 1.744 0 1.23.957 1.777 2.7 2.562 2.529 1.163 3.896 2.12 3.896 4.239 0 2.084-1.779 3.725-4.102 3.725-1.469 0-2.494-.751-3.077-.751-.41 0-.684.205-.786.615h-.409v-4.17" fill="#1C164E"/><path d="M69.983 32.384c6.474-13.75 22.832-22.255 35.023-20.802 8.433.674 18.554 4.697 21.75 8.664l-7.42 8.275c-2.996-3.711-8.204-9.56-19.473-11.342-11.363-1.798-22.47 2.496-29.461 15.265l.139.204-.558-.264Z" fill="#AD0922"/><path d="M151.73 14.257c-3.876-.462-4.906-.287-7.758.188l11.889-9.037-10.653-.19c-17.12 16.55-24.255 23.305-33.74 38.174l.926-.819 8.929-7.71c5.136-4.755 16.945-14.26 29.306-13.095 11.342 1.072 20.83 7.398 25.435 21.354l.602-.134c-3.325-14.832-11.771-27.164-24.936-28.73Z" fill="#1C164E"/></svg>